<?xml version="1.0" standalone="no"?>
<!DOCTYPE svg PUBLIC "-//W3C//DTD SVG 20010904//EN"
 "http://www.w3.org/TR/2001/REC-SVG-20010904/DTD/svg10.dtd">
<svg version="1.0" xmlns="http://www.w3.org/2000/svg"
 width="260.000000pt" height="260.000000pt" viewBox="0 0 260.000000 260.000000"
 preserveAspectRatio="xMidYMid meet">
<metadata>
Created by potrace 1.11, written by Peter Selinger 2001-2013
</metadata>
<g transform="translate(0.000000,260.000000) scale(0.100000,-0.100000)"
fill="#000000" stroke="none">
<path d="M1078 2580 c-627 -117 -1074 -646 -1075 -1271 -2 -505 275 -954 722
-1174 206 -101 396 -141 625 -131 74 3 146 8 160 11 14 3 36 7 50 10 64 12
152 39 229 70 380 155 669 485 770 880 29 112 32 132 36 295 7 224 -33 408
-130 605 -174 352 -516 619 -890 695 -27 5 -63 12 -80 16 -16 3 -95 7 -175 9
-109 2 -169 -1 -242 -15z m348 -124 c172 -16 362 -86 529 -194 88 -58 246
-216 306 -307 282 -426 269 -948 -33 -1357 -204 -277 -572 -462 -918 -462
-442 0 -843 243 -1042 631 -42 80 -91 211 -102 273 -3 14 -7 36 -10 49 -9 41
-19 164 -19 224 2 132 28 271 77 401 100 264 314 500 574 630 63 32 213 83
268 92 21 3 42 8 46 11 5 2 43 7 85 10 43 3 79 6 80 7 3 2 96 -3 159 -8z"/>
<path d="M1266 2217 c-50 -65 -51 -157 -2 -202 36 -33 50 -32 81 9 30 39 37
81 24 130 -10 36 -54 96 -69 96 -5 0 -20 -15 -34 -33z"/>
<path d="M954 2065 c-20 -54 -15 -143 12 -200 19 -41 73 -81 122 -91 31 -6 33
-4 53 41 36 80 23 145 -41 219 -30 34 -96 76 -119 76 -5 0 -17 -20 -27 -45z"/>
<path d="M1570 2090 c-71 -38 -130 -126 -130 -195 1 -52 33 -125 56 -125 29 0
103 40 124 67 42 54 55 174 24 238 -19 40 -25 41 -74 15z"/>
<path d="M633 1973 c-14 -5 -7 -76 12 -112 27 -53 62 -75 118 -76 l52 0 0 52
c-1 56 -15 79 -70 113 -30 19 -88 31 -112 23z"/>
<path d="M1900 1968 c-77 -22 -124 -80 -118 -146 3 -36 4 -37 49 -40 38 -2 52
2 78 24 17 14 39 40 47 57 18 35 28 107 15 107 -5 0 -15 2 -23 4 -7 2 -29 0
-48 -6z"/>
<path d="M1271 1889 c-21 -22 -48 -94 -45 -116 1 -7 2 -22 3 -33 0 -11 16 -37
34 -56 29 -32 36 -35 53 -24 64 40 76 125 30 204 -30 51 -46 56 -75 25z"/>
<path d="M866 1732 c-9 -14 1 -78 17 -108 26 -50 60 -74 115 -81 49 -5 51 -5
58 21 11 45 -4 92 -41 125 -45 39 -135 65 -149 43z"/>
<path d="M1630 1718 c-52 -27 -79 -61 -85 -108 -8 -63 0 -73 58 -67 45 4 56
10 89 46 36 42 59 115 43 140 -10 18 -58 13 -105 -11z"/>
<path d="M538 1663 c-46 -18 -47 -34 -9 -94 32 -52 104 -104 157 -113 38 -8
124 15 143 38 26 31 -37 136 -97 162 -51 23 -148 26 -194 7z"/>
<path d="M1898 1666 c-62 -22 -85 -43 -113 -101 -33 -67 -27 -78 51 -101 64
-18 111 -9 172 36 41 30 92 103 92 134 0 35 -134 57 -202 32z"/>
<path d="M1241 1537 c-20 -6 -45 -26 -62 -50 -54 -74 -33 -181 52 -266 l40
-39 -74 -74 c-84 -84 -125 -159 -134 -240 -7 -66 16 -151 52 -191 43 -49 114
-65 165 -37 10 6 32 4 57 -5 154 -53 257 161 168 345 -16 32 -57 84 -101 128
l-74 74 31 31 c71 70 105 158 88 222 -14 49 -52 90 -97 103 -46 14 -65 14
-111 -1z m136 -42 c25 -17 53 -70 53 -102 0 -49 -97 -193 -129 -193 -17 0 -87
76 -104 112 -45 94 -17 178 68 205 33 11 74 3 112 -22z m-46 -355 c67 -56 123
-121 147 -170 23 -46 27 -68 27 -135 0 -67 -4 -86 -23 -118 -30 -48 -73 -71
-115 -61 -47 10 -49 13 -27 45 41 57 36 130 -14 197 l-23 32 -21 -23 c-54 -57
-62 -135 -22 -204 21 -36 20 -39 -30 -47 -46 -9 -90 19 -116 70 -29 59 -26
184 5 244 23 43 161 190 179 190 5 0 20 -9 33 -20z m-7 -287 c25 -50 22 -101
-10 -147 -12 -18 -14 -17 -33 15 -25 40 -27 89 -6 129 19 37 31 38 49 3z"/>
<path d="M449 1367 c-20 -4 -52 -21 -70 -37 l-34 -28 20 -22 c29 -33 90 -57
135 -55 44 3 110 46 110 72 0 17 -56 72 -74 74 -6 0 -20 2 -31 3 -11 1 -36 -2
-56 -7z"/>
<path d="M840 1370 c-43 -12 -89 -39 -100 -60 -9 -17 -5 -24 31 -50 23 -16 51
-31 63 -31 53 -4 63 -4 88 4 15 5 40 23 54 40 l26 31 -37 33 c-21 18 -45 33
-54 34 -9 0 -23 2 -31 3 -8 2 -26 0 -40 -4z"/>
<path d="M1695 1372 c-32 -7 -85 -51 -85 -71 0 -18 31 -52 65 -69 45 -22 138
2 179 47 18 20 18 22 2 40 -33 36 -116 64 -161 53z"/>
<path d="M2055 1361 c-71 -32 -79 -77 -21 -114 54 -36 144 -23 195 27 l25 25
-23 25 c-22 24 -51 37 -111 50 -14 3 -42 -3 -65 -13z"/>
<path d="M636 1123 c-55 -28 -86 -56 -116 -105 -39 -64 -19 -87 81 -95 108
-10 187 34 225 125 18 45 15 55 -29 75 -57 28 -107 28 -161 0z"/>
<path d="M1823 1131 c-60 -23 -64 -30 -48 -75 29 -84 81 -123 177 -133 62 -6
136 11 145 34 10 25 -37 103 -82 136 -73 53 -127 64 -192 38z"/>
<path d="M704 801 c-53 -32 -97 -134 -75 -170 9 -14 70 -7 108 13 55 28 77 62
78 119 l0 52 -40 3 c-26 1 -51 -4 -71 -17z"/>
<path d="M1784 806 c-12 -30 4 -97 28 -123 44 -47 142 -79 159 -52 19 32 -10
116 -55 158 -33 31 -122 43 -132 17z"/>
<path d="M935 623 c-46 -11 -68 -51 -52 -98 38 -115 237 -183 382 -132 34 12
45 13 66 1 43 -22 158 -23 226 -3 105 33 192 134 163 189 -40 75 -120 56 -328
-78 l-93 -60 -107 69 c-149 97 -208 123 -257 112z m110 -53 c41 -23 103 -61
173 -108 66 -43 56 -53 -53 -57 -58 -2 -85 2 -130 21 -105 42 -160 119 -114
157 27 22 71 17 124 -13z m641 8 c23 -23 8 -63 -40 -104 -59 -52 -118 -71
-208 -69 -119 3 -123 12 -30 74 172 112 240 137 278 99z"/>
</g>
</svg>
