<?xml version="1.0" standalone="no"?>
<!DOCTYPE svg PUBLIC "-//W3C//DTD SVG 20010904//EN"
 "http://www.w3.org/TR/2001/REC-SVG-20010904/DTD/svg10.dtd">
<svg version="1.0" xmlns="http://www.w3.org/2000/svg"
 width="260.000000pt" height="260.000000pt" viewBox="0 0 260.000000 260.000000"
 preserveAspectRatio="xMidYMid meet">
<metadata>
Created by potrace 1.11, written by Peter Selinger 2001-2013
</metadata>
<g transform="translate(0.000000,260.000000) scale(0.100000,-0.100000)"
fill="#000000" stroke="none">
<path d="M1225 2391 c-3 -5 -1 -12 5 -16 5 -3 10 1 10 9 0 18 -6 21 -15 7z"/>
<path d="M1180 2309 c0 -5 5 -7 10 -4 6 3 10 8 10 11 0 2 -4 4 -10 4 -5 0 -10
-5 -10 -11z"/>
<path d="M1382 2300 c0 -14 2 -19 5 -12 2 6 2 18 0 25 -3 6 -5 1 -5 -13z"/>
<path d="M990 2288 c-27 -29 -16 -37 13 -10 35 33 73 28 114 -13 l36 -36 -5
-92 c-5 -102 -14 -122 -67 -158 -20 -13 -40 -30 -44 -37 -5 -7 -12 -10 -18 -7
-13 9 -11 33 4 38 6 2 1 2 -13 0 -14 -2 -65 -23 -115 -47 -248 -118 -439 -369
-495 -649 -23 -114 -8 -425 21 -443 5 -3 9 -12 9 -21 0 -19 52 -137 62 -141 4
-2 8 -8 8 -14 0 -5 9 -22 20 -38 l20 -27 -30 -31 c-42 -44 -60 -95 -60 -167 0
-107 47 -168 160 -211 63 -24 260 -24 350 0 36 10 80 21 97 26 57 14 213 104
213 122 0 4 -13 16 -29 28 l-30 20 -58 -29 c-32 -16 -89 -39 -128 -52 -38 -12
-86 -28 -105 -36 -58 -23 -178 -23 -225 0 -86 41 -135 118 -120 187 9 40 78
92 134 101 104 17 275 -29 451 -119 347 -180 381 -196 464 -219 81 -23 136
-32 201 -31 l60 1 -60 7 c-146 19 -255 65 -466 198 -158 99 -315 178 -424 213
-55 18 -94 23 -185 23 -63 1 -133 -3 -154 -8 -28 -6 -37 -6 -32 2 4 6 -7 35
-24 65 -75 134 -109 314 -90 487 15 143 63 276 145 405 78 123 266 278 380
315 22 7 45 16 50 20 19 13 55 18 55 7 0 -6 -34 -57 -75 -115 -42 -57 -84
-121 -94 -141 -24 -46 -51 -141 -51 -176 0 -71 51 -192 158 -377 33 -56 70
-125 82 -153 13 -27 26 -57 30 -66 4 -8 16 -47 25 -87 18 -72 18 -212 0 -257
-7 -18 -5 -17 19 4 30 28 56 105 56 167 0 59 -24 178 -50 249 -13 33 -56 130
-98 215 -96 199 -112 243 -112 310 0 84 26 144 122 287 27 40 58 95 70 122 18
45 43 70 56 56 3 -3 -7 -29 -21 -59 -70 -142 -119 -331 -120 -456 0 -79 3 -93
34 -155 43 -86 88 -124 155 -131 37 -4 58 -1 84 14 39 21 100 95 100 120 0 13
-3 11 -16 -6 -59 -84 -217 -62 -274 39 -23 41 -25 53 -23 159 2 117 4 127 80
402 11 37 21 70 24 73 3 3 4 19 1 36 -4 26 -8 30 -28 25 -24 -6 -24 -5 -24 71
0 101 -14 149 -55 190 -28 28 -40 33 -79 33 -34 0 -50 -6 -66 -22z m6 -364
c-3 -9 -6 -18 -6 -21 0 -3 -7 0 -15 7 -13 11 -13 15 -3 21 21 13 31 10 24 -7z"/>
<path d="M1448 2133 c7 -3 16 -2 19 1 4 3 -2 6 -13 5 -11 0 -14 -3 -6 -6z"/>
<path d="M1319 2083 c-13 -17 -13 -17 6 -3 11 8 22 16 24 17 2 2 0 3 -6 3 -6
0 -17 -8 -24 -17z"/>
<path d="M1496 1979 c-9 -13 -12 -26 -8 -29 4 -4 36 -12 72 -19 36 -7 70 -16
75 -21 6 -4 27 -13 48 -20 38 -12 91 -40 161 -86 29 -20 37 -22 33 -10 -6 14
-3 15 13 6 42 -23 17 8 -39 48 -68 48 -209 117 -266 130 -22 5 -47 13 -56 17
-11 4 -22 -1 -33 -16z"/>
<path d="M1410 1960 c-9 -6 -10 -10 -3 -10 6 0 15 5 18 10 8 12 4 12 -15 0z"/>
<path d="M1930 1763 c14 -9 36 -26 50 -37 23 -20 23 -20 10 -1 -23 30 -53 54
-70 55 -8 0 -4 -7 10 -17z"/>
<path d="M1945 1720 c16 -16 33 -30 37 -30 5 0 -5 14 -22 30 -17 17 -34 30
-37 30 -4 0 6 -13 22 -30z"/>
<path d="M1247 1589 c-26 -15 -57 -83 -57 -124 0 -55 35 -114 77 -131 61 -26
101 -2 117 70 l7 29 -31 -27 c-39 -33 -60 -33 -90 -1 -18 19 -24 37 -24 74 -1
81 40 108 119 76 18 -7 17 -5 -4 18 -26 29 -79 36 -114 16z"/>
<path d="M2133 1480 c1 -16 5 -30 10 -30 11 0 9 48 -3 55 -5 3 -8 -7 -7 -25z"/>
<path d="M1707 639 c-66 -18 -206 -83 -312 -144 -78 -44 -78 -45 -51 -66 32
-25 36 -24 98 12 126 74 256 119 365 126 70 5 87 3 128 -17 57 -27 94 -82 102
-151 5 -40 8 -47 19 -38 23 19 17 108 -10 165 -60 123 -171 160 -339 113z"/>
<path d="M631 504 c-12 -14 -8 -22 33 -62 55 -55 62 -49 10 8 -51 56 -37 60
19 5 66 -64 72 -56 7 10 -30 30 -54 55 -55 55 0 -1 -6 -8 -14 -16z"/>
</g>
</svg>
